PathFileType	4	(X/Y/Z)	pose_F01_0-97.trc
DataRate	CameraRate	NumFrames	NumMarkers	Units	OrigDataRate	OrigDataStartFrame	OrigNumFrames
30	30	6	21	m	30	72	97
Frame#	Time	CHip			RHip			RKnee			RAnkle			RBigToe			RSmallToe			RHeel			LHip			LKnee			LAnkle			LBigToe			LSmallToe			LHeel			Neck			Nose			RShoulder			RElbow			RWrist			LShoulder			LElbow			LWrist			
		X1	Y1	Z1	X2	Y2	Z2	X3	Y3	Z3	X4	Y4	Z4	X5	Y5	Z5	X6	Y6	Z6	X7	Y7	Z7	X8	Y8	Z8	X9	Y9	Z9	X10	Y10	Z10	X11	Y11	Z11	X12	Y12	Z12	X13	Y13	Z13	X14	Y14	Z14	X15	Y15	Z15	X16	Y16	Z16	X17	Y17	Z17	X18	Y18	Z18	X19	Y19	Z19	X20	Y20	Z20	X21	Y21	Z21	
72	2.4	-0.30957656729195016	1.8226586014073194	-0.5447823704287745	-0.31655687369856295	1.819592002197494	-0.48903407732294646	-0.32869447795540463	1.693470708337788	-0.49943373641770433	-0.4945715561141373	1.5623544839384962	-0.9327935440419788	-0.47859766712281404	1.524309970471089	-0.9813421519418514	-0.389707032695204	1.5333295362769566	-0.6705518038491108	-0.5038967183065809	1.5502895754160686	-0.9461597403629104	-0.29564691938763193	1.8238814751316847	-0.6066612437535019	-0.30977464809288174	1.6978325879493505	-0.5897881100403551				-0.39094979429089355	1.5391793694065414	-0.9238892370510179				-0.4270308201135941	1.5671371781562617	-0.87599736835221	-0.31913575331068844	1.9781387559754267	-0.5650859800437197	-0.28803434182737814	2.0457340378550195	-0.5718550480263527	-0.3325834773730564	1.974052992901851	-0.48200602502758205	-0.32953001446473773	1.8851037502235946	-0.44373759258686124	-0.31708643847456897	1.814085250932472	-0.4303704203402006	-0.30441219071966086	1.9834197792615278	-0.6507846193500596	-1.0875602989563389	1.8222848346689156	0.11509201072636288	-0.2790517860874196	1.8245196892396798	-0.6652404319245501
73	2.433333333333333	-0.3067325772084738	1.8237030818946025	-0.5438267074122172	-0.31651101359065203	1.8194253730341865	-0.4890443040285014	-0.32832912609312237	1.6942488381572147	-0.49984374256002523	-0.4945715561141373	1.5623544839384962	-0.9327935440419788	-0.47859766712281404	1.524309970471089	-0.9813421519418514	-0.35176447528199206	1.5365950637565278	-0.565319871269887	-0.5038967183065809	1.5502895754160686	-0.9461597403629104	-0.29479917940344386	1.8255373906167178	-0.6035864531931754	-0.31082707982328184	1.6988662905293208	-0.5844312419147427				-0.3913807228489858	1.5390288501049503	-0.9253107909877956				-0.43004519968570487	1.5666559640891498	-0.8765094940742021	-0.3190709514299986	1.9768664998989287	-0.5646229714013017	-0.2850478513324886	2.045805772442868	-0.5709292619255087	-0.3315157469542303	1.9739568639831222	-0.4788513953561858	-0.32543007387225537	1.8861645954039195	-0.4480916767409733	-0.31541171770486465	1.8141425984102928	-0.43255424792297115	-0.30657338943953	1.9809212663430122	-0.6483975547604467	-1.1216829326302273	1.8216881545138022	0.15875876518075888	-0.27885775630975146	1.825698338118145	-0.6654298561245529
74	2.466666666666667	-0.3086293272888355	1.8230534119097337	-0.5417167321012593	-0.3154985901373216	1.8188314949874351	-0.48595445518735797	-0.3282658670508304	1.6941378792596378	-0.49974242469940355	-0.4945715561141373	1.5623544839384962	-0.9327935440419788	-0.47859766712281404	1.524309970471089	-0.9813421519418514	-0.31382191786878016	1.5398605912360992	-0.4600879386906634	-0.5038967183065809	1.5502895754160686	-0.9461597403629104	-0.29477352757169933	1.8250410717799759	-0.6034761884849488	-0.309477863741556	1.69654725212573	-0.5811831069696892				-0.391811651407078	1.5388783308033591	-0.9267323449245731				-0.4340420280474851	1.5665475008319354	-0.8878844210353509	-0.31801949393707896	1.9767113491314157	-0.5616076465091789	-0.28413865165357116	2.044627970653209	-0.5679330425765663	-0.32840824689290926	1.9725917450994885	-0.4774236247538257	-0.3253543653227874	1.8861511396049302	-0.448073279043967	-0.31379161232716485	1.8144900277881328	-0.42960715692888757	-0.30560647872241287	1.9806961450945175	-0.6454040783951431	-0.2966693826761914	1.8970177532936745	-0.6623262920111275	-0.28113183750521714	1.825177228944264	-0.6631321741195166
75	2.5	-0.3076567466616536	1.8229000866644365	-0.5385367219906038	-0.3153204044952147	1.819606213248046	-0.4860017271481814	-0.3270525016271048	1.6959863792044914	-0.4969975797652936	-0.4945715561141373	1.5623544839384962	-0.9327935440419788	-0.47859766712281404	1.524309970471089	-0.9813421519418514	-0.30959413192314567	1.5391488152551895	-0.464189187394548	-0.5038967183065809	1.5502895754160686	-0.9461597403629104	-0.29590347099265213	1.8246541383442427	-0.5981724109618758	-0.3065758786044538	1.6982154129067906	-0.5713693091586695				-0.391811651407078	1.5388783308033591	-0.9267323449245731				-0.4340420280474851	1.5665475008319354	-0.8878844210353509	-0.3149427302490961	1.9753771263472355	-0.5602480938041587	-0.2839929969597642	2.045703071597904	-0.5677708323835438	-0.3273403111134695	1.9724467363118028	-0.4742157461743071	-0.3252759037296954	1.8845433488847794	-0.4476381923583217	-0.3102276316170141	1.8149554452723757	-0.42874526017372766	-0.3034861808424923	1.9807721442402362	-0.6473917775696519	-0.2967157141959732	1.8942145574842553	-0.6620471769500436	-0.27909083779065375	1.8250639227806285	-0.6650956504752715
76	2.533333333333333	-0.3076751048656097	1.822687789181722	-0.5383366806319574	-0.3155281121521735	1.8181422715884892	-0.48567926973750014	-0.32731551874824977	1.6953240155398674	-0.4964976084370727	-0.4945715561141373	1.5623544839384962	-0.9327935440419788	-0.47859766712281404	1.524309970471089	-0.9813421519418514	-0.3124988739394064	1.538960374484456	-0.4568564665789567	-0.5038967183065809	1.5502895754160686	-0.9461597403629104	-0.2970071569558033	1.8244028727086616	-0.5927470171631611	-0.30344994827103355	1.6977777244364094	-0.5700152836461801				-0.391811651407078	1.5388783308033591	-0.9267323449245731				-0.4340420280474851	1.5665475008319354	-0.8878844210353509	-0.3159564426453613	1.9751966320457233	-0.5550019838359606	-0.28310559582824296	2.044529165233542	-0.5647582923748552	-0.32817895611969217	1.972207512396261	-0.4690553446532528	-0.3242972624494613	1.8864160675844874	-0.4448650655092145	-0.3093481007936813	1.8149311499521805	-0.43404197590496674	-0.30458723128319326	1.9795715854475378	-0.6419180711876752	-0.29670398127854897	1.8963673226672313	-0.6622975030716629	-0.28123653358796097	1.825136891794609	-0.6631971514218574
77	2.566666666666667	-0.3076289000008171	1.8226542724118435	-0.5384456115748865	-0.31550401902213676	1.8184418196678633	-0.48580398825507504	-0.3268233563197236	1.694399525137127	-0.49695315062135126	-0.4945715561141373	1.5623544839384962	-0.9327935440419788	-0.47859766712281404	1.524309970471089	-0.9813421519418514	-0.3104785201820037	1.53758766591482	-0.4587888507477097	-0.5038967183065809	1.5502895754160686	-0.9461597403629104	-0.2948909924257853	1.8241334353062932	-0.5949595161749063	-0.30310902131459205	1.6955556399836593	-0.5616815260747137				-0.391811651407078	1.5388783308033591	-0.9267323449245731				-0.4340420280474851	1.5665475008319354	-0.8878844210353509	-0.315997570373009	1.9765072020564798	-0.5554056939732845	-0.28296501555585496	2.0455993077530845	-0.5646232887508501	-0.32721856687572576	1.9724699513297594	-0.4741916023031964	-0.3242618126345738	1.8867088975096096	-0.44486430521731246	-0.30770880372147014	1.8123479778414633	-0.43580377728637765	-0.304684236837593	1.9808385253061938	-0.6422117791863945	-0.2967580874968341	1.893756873133355	-0.6620313592009026	-0.28114400027522063	1.8238030109797052	-0.6630697111451583
